<?xml version="1.0" standalone="no"?>
<!DOCTYPE svg PUBLIC "-//W3C//DTD SVG 20010904//EN"
 "http://www.w3.org/TR/2001/REC-SVG-20010904/DTD/svg10.dtd">
<svg version="1.0" xmlns="http://www.w3.org/2000/svg"
 width="192.000000pt" height="192.000000pt" viewBox="0 0 192.000000 192.000000"
 preserveAspectRatio="xMidYMid meet">

<g transform="translate(0.000000,192.000000) scale(0.100000,-0.100000)"
fill="#000000" stroke="none">
<path d="M628 1243 c-46 -4 -57 -15 -40 -38 4 -6 28 0 62 17 30 15 48 27 40
26 -8 -1 -36 -3 -62 -5z"/>
<path d="M361 1237 c2 -2 21 -15 42 -30 l37 -28 0 30 c0 30 -2 31 -42 31 -23
0 -39 -1 -37 -3z"/>
<path d="M1190 1179 c-22 -23 -40 -46 -40 -53 1 -6 11 1 23 15 33 39 59 49
127 49 59 0 114 -18 133 -44 6 -7 7 -4 3 7 -3 10 -6 23 -6 27 0 14 -99 40
-152 40 -43 0 -52 -4 -88 -41z"/>
<path d="M1066 666 c3 -8 13 -17 22 -21 13 -5 13 -2 -3 15 -21 24 -26 25 -19
6z"/>
<path d="M1480 600 c-19 -16 -42 -30 -51 -30 -9 0 -22 -7 -29 -15 -9 -11 -32
-15 -82 -15 -57 0 -80 5 -131 31 -50 24 -58 26 -42 10 27 -27 124 -61 175 -61
47 0 143 45 179 84 32 34 24 33 -19 -4z"/>
<path d="M1108 613 c7 -3 16 -2 19 1 4 3 -2 6 -13 5 -11 0 -14 -3 -6 -6z"/>
<path d="M930 601 c0 -25 -67 -33 -304 -34 -163 -1 -242 -5 -235 -12 14 -14
448 -10 492 4 35 12 80 51 59 51 -7 0 -12 -4 -12 -9z"/>
<path d="M933 83 c15 -2 39 -2 55 0 15 2 2 4 -28 4 -30 0 -43 -2 -27 -4z"/>
</g>
</svg>
